<svg width="200" height="200" fill="none" xmlns="http://www.w3.org/2000/svg"><path d="M100 25c-45.834 0-83.334 30-83.334 66.667 0 18.333 9.167 35 23.334 45.833 0 5-3.334 18.333-23.334 37.5 20-.833 38.334-8.333 54.167-20.833C80 156.667 90 158.333 100 158.333c45.833 0 83.333-30 83.333-66.666C183.333 55 145.833 25 100 25zm0 116.667c-36.667 0-66.667-22.5-66.667-50s30-50 66.667-50 66.667 22.5 66.667 50-30 50-66.667 50zm1.667-87.5c-7.5 0-13.334 1.666-17.5 4.166-5 3.334-7.5 8.334-6.667 14.167h16.666c0-2.5.834-4.167 2.5-5 1.667-.833 3.334-1.667 5.834-1.667 2.5 0 5 .834 6.667 2.5 1.666 1.667 2.5 3.334 2.5 5.834 0 2.5-.834 4.166-1.667 5.833-1.667 1.667-3.333 3.333-5 4.167-4.167 2.5-7.5 5-9.167 6.666-3.333 2.5-4.166 5-4.166 9.167h16.666c0-2.5.834-4.167.834-5.833.833-1.667 2.5-2.5 4.166-4.167 4.167-1.667 6.667-4.167 9.167-7.5s3.333-6.667 3.333-10c0-5.833-2.5-10.833-6.666-14.167-3.334-2.5-10-4.166-17.5-4.166zm-10 54.166V125h16.666v-16.667H91.667z" fill="#FE9E45"/></svg>