<svg width="60" height="60" fill="none" xmlns="http://www.w3.org/2000/svg"><rect width="60" height="60" rx="5" fill="#fff"/><path d="M40.348 29.172c1.504.512 2.672 1.344 3.504 2.496.832 1.152 1.248 2.592 1.248 4.32 0 3.392-1.312 6-3.936 7.824-2.592 1.792-6.144 2.688-10.656 2.688H14.332l6.72-33.6h14.88c3.392 0 6 .64 7.824 1.92 1.856 1.248 2.784 3.072 2.784 5.472 0 2.176-.576 4.032-1.728 5.568-1.12 1.504-2.608 2.608-4.464 3.312zM25.036 16.788l-2.16 10.752h9.84c2.72 0 4.864-.544 6.432-1.632 1.6-1.12 2.4-2.736 2.4-4.848 0-1.44-.576-2.512-1.728-3.216-1.12-.704-2.752-1.056-4.896-1.056h-9.888zm5.808 25.824c3.04 0 5.376-.56 7.008-1.68 1.664-1.152 2.496-2.784 2.496-4.896 0-1.664-.592-2.848-1.776-3.552-1.152-.704-2.896-1.056-5.232-1.056H22.108L19.9 42.612h10.944z" fill="#481C03"/><path d="M41.36 38.546l-.21-.09v2.098l.09.039 5.18 2.237-5.179 2.206-.091.039v2.252l.21-.09 7.7-3.322.09-.04v-1.957l-.09-.039-7.7-3.333zm-.21-.285v.15h8v-3.648c0-.855-.161-1.615-.489-2.277v-.001a3.725 3.725 0 00-1.409-1.557c-.605-.375-1.308-.56-2.102-.56-.794 0-1.497.185-2.102.56a3.654 3.654 0 00-1.398 1.557c-.335.662-.5 1.423-.5 2.278v3.498zm2.37-5.144h0l.002-.001c.392-.426.929-.645 1.628-.645.699 0 1.24.219 1.64.646.393.42.597.993.597 1.734v1.478h-4.474v-1.478c0-.74.207-1.313.608-1.733zm5.514-4.44h0v-.002a6.64 6.64 0 00.248-1.812c0-.718-.108-1.337-.331-1.852-.222-.512-.524-.903-.912-1.165a2.256 2.256 0 00-1.294-.4c-.54 0-.986.143-1.32.445-.32.28-.554.62-.702 1.017a12.69 12.69 0 00-.423 1.458h0v.003c-.124.56-.246.97-.364 1.234a.613.613 0 01-.196.245.449.449 0 01-.262.075c-.21 0-.378-.089-.514-.286-.136-.205-.216-.54-.216-1.027 0-.681.193-1.368.586-2.06l.084-.148-.158-.065-1.353-.55-.117-.047-.067.107c-.23.367-.404.793-.525 1.275-.12.481-.18.974-.18 1.477 0 .719.108 1.338.331 1.853h0c.222.505.529.893.924 1.154.385.259.817.388 1.293.388.54 0 .988-.139 1.33-.432h0l.001-.001c.326-.287.564-.63.712-1.028.143-.382.284-.87.424-1.46h0c.088-.38.167-.675.238-.888v-.002a1.36 1.36 0 01.267-.496h0l.005-.006a.403.403 0 01.334-.164c.19 0 .346.087.477.292.125.207.198.547.198 1.043 0 .439-.07.878-.213 1.318-.142.442-.33.82-.561 1.134l-.11.15.17.076 1.341.605.109.049.072-.095c.278-.363.502-.836.674-1.412z" fill="#FE9E45" stroke="#fff" stroke-width=".3"/></svg>